<?xml version="1.0" encoding="UTF-8"?>
<svg xmlns="http://www.w3.org/2000/svg" width="150mm" height="490mm" viewBox="0 0 150 490">
<defs><clipPath id="c"><rect width="150" height="400"/></clipPath></defs>
<rect width="150" height="400" fill="#1f2a33"/>
<g clip-path="url(#c)">
<g fill="none" stroke-width="1.6" transform="translate(150,0) scale(-1,1)">
<polyline points="0.0,40.00 1.5,42.01 3.0,43.98 4.5,45.89 6.0,47.71 7.5,49.40 9.0,50.95 10.5,52.33 12.0,53.51 13.5,54.48 15.0,55.22 16.5,55.72 18.0,55.97 19.5,55.97 21.0,55.72 22.5,55.22 24.0,54.48 25.5,53.51 27.0,52.33 28.5,50.95 30.0,49.40 31.5,47.71 33.0,45.89 34.5,43.98 36.0,42.01 37.5,40.00 39.0,37.99 40.5,36.02 42.0,34.11 43.5,32.29 45.0,30.60 46.5,29.05 48.0,27.67 49.5,26.49 51.0,25.52 52.5,24.78 54.0,24.28 55.5,24.03 57.0,24.03 58.5,24.28 60.0,24.78 61.5,25.52 63.0,26.49 64.5,27.67 66.0,29.05 67.5,30.60 69.0,32.29 70.5,34.11 72.0,36.02 73.5,37.99 75.0,40.00 76.5,42.01 78.0,43.98 79.5,45.89 81.0,47.71 82.5,49.40 84.0,50.95 85.5,52.33 87.0,53.51 88.5,54.48 90.0,55.22 91.5,55.72 93.0,55.97 94.5,55.97 96.0,55.72 97.5,55.22 99.0,54.48 100.5,53.51 102.0,52.33 103.5,50.95 105.0,49.40 106.5,47.71 108.0,45.89 109.5,43.98 111.0,42.01 112.5,40.00 114.0,37.99 115.5,36.02 117.0,34.11 118.5,32.29 120.0,30.60 121.5,29.05 123.0,27.67 124.5,26.49 126.0,25.52 127.5,24.78 129.0,24.28 130.5,24.03 132.0,24.03 133.5,24.28 135.0,24.78 136.5,25.52 138.0,26.49 139.5,27.67 141.0,29.05 142.5,30.60 144.0,32.29 145.5,34.11 147.0,36.02 148.5,37.99 150.0,40.00" stroke="#e07a2f" opacity="1.00"/>
<polyline points="0.0,70.95 1.5,72.49 3.0,73.90 4.5,75.15 6.0,76.22 7.5,77.10 9.0,77.78 10.5,78.24 12.0,78.47 13.5,78.47 15.0,78.25 16.5,77.80 18.0,77.14 19.5,76.26 21.0,75.20 22.5,73.95 24.0,72.55 25.5,71.02 27.0,69.37 28.5,67.64 30.0,65.86 31.5,64.04 33.0,62.22 34.5,60.43 36.0,58.70 37.5,57.05 39.0,55.51 40.5,54.10 42.0,52.85 43.5,51.78 45.0,50.90 46.5,50.22 48.0,49.76 49.5,49.53 51.0,49.53 52.5,49.75 54.0,50.20 55.5,50.86 57.0,51.74 58.5,52.80 60.0,54.05 61.5,55.45 63.0,56.98 64.5,58.63 66.0,60.36 67.5,62.14 69.0,63.96 70.5,65.78 72.0,67.57 73.5,69.30 75.0,70.95 76.5,72.49 78.0,73.90 79.5,75.15 81.0,76.22 82.5,77.10 84.0,77.78 85.5,78.24 87.0,78.47 88.5,78.47 90.0,78.25 91.5,77.80 93.0,77.14 94.5,76.26 96.0,75.20 97.5,73.95 99.0,72.55 100.5,71.02 102.0,69.37 103.5,67.64 105.0,65.86 106.5,64.04 108.0,62.22 109.5,60.43 111.0,58.70 112.5,57.05 114.0,55.51 115.5,54.10 117.0,52.85 118.5,51.78 120.0,50.90 121.5,50.22 123.0,49.76 124.5,49.53 126.0,49.53 127.5,49.75 129.0,50.20 130.5,50.86 132.0,51.74 133.5,52.80 135.0,54.05 136.5,55.45 138.0,56.98 139.5,58.63 141.0,60.36 142.5,62.14 144.0,63.96 145.5,65.78 147.0,67.57 148.5,69.30 150.0,70.95" stroke="#c9d1d6" opacity="0.92"/>
<polyline points="0.0,98.94 1.5,99.73 3.0,100.34 4.5,100.76 6.0,100.97 7.5,100.98 9.0,100.78 10.5,100.38 12.0,99.79 13.5,99.01 15.0,98.06 16.5,96.95 18.0,95.70 19.5,94.32 21.0,92.85 22.5,91.30 24.0,89.70 25.5,88.07 27.0,86.44 28.5,84.83 30.0,83.28 31.5,81.80 33.0,80.41 34.5,79.15 36.0,78.03 37.5,77.06 39.0,76.27 40.5,75.66 42.0,75.24 43.5,75.03 45.0,75.02 46.5,75.22 48.0,75.62 49.5,76.21 51.0,76.99 52.5,77.94 54.0,79.05 55.5,80.30 57.0,81.68 58.5,83.15 60.0,84.70 61.5,86.30 63.0,87.93 64.5,89.56 66.0,91.17 67.5,92.72 69.0,94.20 70.5,95.59 72.0,96.85 73.5,97.97 75.0,98.94 76.5,99.73 78.0,100.34 79.5,100.76 81.0,100.97 82.5,100.98 84.0,100.78 85.5,100.38 87.0,99.79 88.5,99.01 90.0,98.06 91.5,96.95 93.0,95.70 94.5,94.32 96.0,92.85 97.5,91.30 99.0,89.70 100.5,88.07 102.0,86.44 103.5,84.83 105.0,83.28 106.5,81.80 108.0,80.41 109.5,79.15 111.0,78.03 112.5,77.06 114.0,76.27 115.5,75.66 117.0,75.24 118.5,75.03 120.0,75.02 121.5,75.22 123.0,75.62 124.5,76.21 126.0,76.99 127.5,77.94 129.0,79.05 130.5,80.30 132.0,81.68 133.5,83.15 135.0,84.70 136.5,86.30 138.0,87.93 139.5,89.56 141.0,91.17 142.5,92.72 144.0,94.20 145.5,95.59 147.0,96.85 148.5,97.97 150.0,98.94" stroke="#c9d1d6" opacity="0.84"/>
<polyline points="0.0,123.47 1.5,123.48 3.0,123.31 4.5,122.97 6.0,122.44 7.5,121.76 9.0,120.92 10.5,119.94 12.0,118.83 13.5,117.62 15.0,116.32 16.5,114.95 18.0,113.53 19.5,112.09 21.0,110.65 22.5,109.23 24.0,107.85 25.5,106.54 27.0,105.31 28.5,104.19 30.0,103.20 31.5,102.34 33.0,101.63 34.5,101.09 36.0,100.72 37.5,100.53 39.0,100.52 40.5,100.69 42.0,101.03 43.5,101.56 45.0,102.24 46.5,103.08 48.0,104.06 49.5,105.17 51.0,106.38 52.5,107.68 54.0,109.05 55.5,110.47 57.0,111.91 58.5,113.35 60.0,114.77 61.5,116.15 63.0,117.46 64.5,118.69 66.0,119.81 67.5,120.80 69.0,121.66 70.5,122.37 72.0,122.91 73.5,123.28 75.0,123.47 76.5,123.48 78.0,123.31 79.5,122.97 81.0,122.44 82.5,121.76 84.0,120.92 85.5,119.94 87.0,118.83 88.5,117.62 90.0,116.32 91.5,114.95 93.0,113.53 94.5,112.09 96.0,110.65 97.5,109.23 99.0,107.85 100.5,106.54 102.0,105.31 103.5,104.19 105.0,103.20 106.5,102.34 108.0,101.63 109.5,101.09 111.0,100.72 112.5,100.53 114.0,100.52 115.5,100.69 117.0,101.03 118.5,101.56 120.0,102.24 121.5,103.08 123.0,104.06 124.5,105.17 126.0,106.38 127.5,107.68 129.0,109.05 130.5,110.47 132.0,111.91 133.5,113.35 135.0,114.77 136.5,116.15 138.0,117.46 139.5,118.69 141.0,119.81 142.5,120.80 144.0,121.66 145.5,122.37 147.0,122.91 148.5,123.28 150.0,123.47" stroke="#c9d1d6" opacity="0.76"/>
<polyline points="0.0,145.09 1.5,144.50 3.0,143.77 4.5,142.92 6.0,141.96 7.5,140.91 9.0,139.78 10.5,138.59 12.0,137.36 13.5,136.11 15.0,134.85 16.5,133.62 18.0,132.42 19.5,131.28 21.0,130.21 22.5,129.23 24.0,128.36 25.5,127.61 27.0,127.00 28.5,126.52 30.0,126.20 31.5,126.03 33.0,126.01 34.5,126.16 36.0,126.46 37.5,126.91 39.0,127.50 40.5,128.23 42.0,129.08 43.5,130.04 45.0,131.09 46.5,132.22 48.0,133.41 49.5,134.64 51.0,135.89 52.5,137.15 54.0,138.38 55.5,139.58 57.0,140.72 58.5,141.79 60.0,142.77 61.5,143.64 63.0,144.39 64.5,145.00 66.0,145.48 67.5,145.80 69.0,145.97 70.5,145.99 72.0,145.84 73.5,145.54 75.0,145.09 76.5,144.50 78.0,143.77 79.5,142.92 81.0,141.96 82.5,140.91 84.0,139.78 85.5,138.59 87.0,137.36 88.5,136.11 90.0,134.85 91.5,133.62 93.0,132.42 94.5,131.28 96.0,130.21 97.5,129.23 99.0,128.36 100.5,127.61 102.0,127.00 103.5,126.52 105.0,126.20 106.5,126.03 108.0,126.01 109.5,126.16 111.0,126.46 112.5,126.91 114.0,127.50 115.5,128.23 117.0,129.08 118.5,130.04 120.0,131.09 121.5,132.22 123.0,133.41 124.5,134.64 126.0,135.89 127.5,137.15 129.0,138.38 130.5,139.58 132.0,140.72 133.5,141.79 135.0,142.77 136.5,143.64 138.0,144.39 139.5,145.00 141.0,145.48 142.5,145.80 144.0,145.97 145.5,145.99 147.0,145.84 148.5,145.54 150.0,145.09" stroke="#c9d1d6" opacity="0.68"/>
<polyline points="0.0,165.09 1.5,164.19 3.0,163.23 4.5,162.22 6.0,161.18 7.5,160.11 9.0,159.05 10.5,158.00 12.0,156.98 13.5,156.00 15.0,155.10 16.5,154.26 18.0,153.52 19.5,152.88 21.0,152.36 22.5,151.95 24.0,151.67 25.5,151.52 27.0,151.51 28.5,151.63 30.0,151.88 31.5,152.26 33.0,152.76 34.5,153.38 36.0,154.10 37.5,154.91 39.0,155.81 40.5,156.77 42.0,157.78 43.5,158.82 45.0,159.89 46.5,160.95 48.0,162.00 49.5,163.02 51.0,164.00 52.5,164.90 54.0,165.74 55.5,166.48 57.0,167.12 58.5,167.64 60.0,168.05 61.5,168.33 63.0,168.48 64.5,168.49 66.0,168.37 67.5,168.12 69.0,167.74 70.5,167.24 72.0,166.62 73.5,165.90 75.0,165.09 76.5,164.19 78.0,163.23 79.5,162.22 81.0,161.18 82.5,160.11 84.0,159.05 85.5,158.00 87.0,156.98 88.5,156.00 90.0,155.10 91.5,154.26 93.0,153.52 94.5,152.88 96.0,152.36 97.5,151.95 99.0,151.67 100.5,151.52 102.0,151.51 103.5,151.63 105.0,151.88 106.5,152.26 108.0,152.76 109.5,153.38 111.0,154.10 112.5,154.91 114.0,155.81 115.5,156.77 117.0,157.78 118.5,158.82 120.0,159.89 121.5,160.95 123.0,162.00 124.5,163.02 126.0,164.00 127.5,164.90 129.0,165.74 130.5,166.48 132.0,167.12 133.5,167.64 135.0,168.05 136.5,168.33 138.0,168.48 139.5,168.49 141.0,168.37 142.5,168.12 144.0,167.74 145.5,167.24 147.0,166.62 148.5,165.90 150.0,165.09" stroke="#c9d1d6" opacity="0.60"/>
<polyline points="0.0,184.99 1.5,184.11 3.0,183.23 4.5,182.37 6.0,181.53 7.5,180.73 9.0,179.98 10.5,179.29 12.0,178.68 13.5,178.15 15.0,177.71 16.5,177.38 18.0,177.15 19.5,177.02 21.0,177.01 22.5,177.10 24.0,177.31 25.5,177.62 27.0,178.03 28.5,178.54 30.0,179.13 31.5,179.80 33.0,180.53 34.5,181.32 36.0,182.15 37.5,183.01 39.0,183.89 40.5,184.77 42.0,185.63 43.5,186.47 45.0,187.27 46.5,188.02 48.0,188.71 49.5,189.32 51.0,189.85 52.5,190.29 54.0,190.62 55.5,190.85 57.0,190.98 58.5,190.99 60.0,190.90 61.5,190.69 63.0,190.38 64.5,189.97 66.0,189.46 67.5,188.87 69.0,188.20 70.5,187.47 72.0,186.68 73.5,185.85 75.0,184.99 76.5,184.11 78.0,183.23 79.5,182.37 81.0,181.53 82.5,180.73 84.0,179.98 85.5,179.29 87.0,178.68 88.5,178.15 90.0,177.71 91.5,177.38 93.0,177.15 94.5,177.02 96.0,177.01 97.5,177.10 99.0,177.31 100.5,177.62 102.0,178.03 103.5,178.54 105.0,179.13 106.5,179.80 108.0,180.53 109.5,181.32 111.0,182.15 112.5,183.01 114.0,183.89 115.5,184.77 117.0,185.63 118.5,186.47 120.0,187.27 121.5,188.02 123.0,188.71 124.5,189.32 126.0,189.85 127.5,190.29 129.0,190.62 130.5,190.85 132.0,190.98 133.5,190.99 135.0,190.90 136.5,190.69 138.0,190.38 139.5,189.97 141.0,189.46 142.5,188.87 144.0,188.20 145.5,187.47 147.0,186.68 148.5,185.85 150.0,184.99" stroke="#c9d1d6" opacity="0.52"/>
<polyline points="0.0,206.07 1.5,205.44 3.0,204.85 4.5,204.31 6.0,203.83 7.5,203.41 9.0,203.07 10.5,202.80 12.0,202.62 13.5,202.52 15.0,202.51 16.5,202.58 18.0,202.74 19.5,202.98 21.0,203.30 22.5,203.70 24.0,204.16 25.5,204.69 27.0,205.26 28.5,205.88 30.0,206.53 31.5,207.21 33.0,207.90 34.5,208.59 36.0,209.27 37.5,209.93 39.0,210.56 40.5,211.15 42.0,211.69 43.5,212.17 45.0,212.59 46.5,212.93 48.0,213.20 49.5,213.38 51.0,213.48 52.5,213.49 54.0,213.42 55.5,213.26 57.0,213.02 58.5,212.70 60.0,212.30 61.5,211.84 63.0,211.31 64.5,210.74 66.0,210.12 67.5,209.47 69.0,208.79 70.5,208.10 72.0,207.41 73.5,206.73 75.0,206.07 76.5,205.44 78.0,204.85 79.5,204.31 81.0,203.83 82.5,203.41 84.0,203.07 85.5,202.80 87.0,202.62 88.5,202.52 90.0,202.51 91.5,202.58 93.0,202.74 94.5,202.98 96.0,203.30 97.5,203.70 99.0,204.16 100.5,204.69 102.0,205.26 103.5,205.88 105.0,206.53 106.5,207.21 108.0,207.90 109.5,208.59 111.0,209.27 112.5,209.93 114.0,210.56 115.5,211.15 117.0,211.69 118.5,212.17 120.0,212.59 121.5,212.93 123.0,213.20 124.5,213.38 126.0,213.48 127.5,213.49 129.0,213.42 130.5,213.26 132.0,213.02 133.5,212.70 135.0,212.30 136.5,211.84 138.0,211.31 139.5,210.74 141.0,210.12 142.5,209.47 144.0,208.79 145.5,208.10 147.0,207.41 148.5,206.73 150.0,206.07" stroke="#c9d1d6" opacity="0.44"/>
<polyline points="0.0,228.97 1.5,228.67 3.0,228.42 4.5,228.22 6.0,228.09 7.5,228.01 9.0,228.00 10.5,228.06 12.0,228.17 13.5,228.35 15.0,228.58 16.5,228.86 18.0,229.20 19.5,229.58 21.0,230.00 22.5,230.45 24.0,230.92 25.5,231.41 27.0,231.92 28.5,232.42 30.0,232.91 31.5,233.39 33.0,233.85 34.5,234.28 36.0,234.68 37.5,235.03 39.0,235.33 40.5,235.58 42.0,235.78 43.5,235.91 45.0,235.99 46.5,236.00 48.0,235.94 49.5,235.83 51.0,235.65 52.5,235.42 54.0,235.14 55.5,234.80 57.0,234.42 58.5,234.00 60.0,233.55 61.5,233.08 63.0,232.59 64.5,232.08 66.0,231.58 67.5,231.09 69.0,230.61 70.5,230.15 72.0,229.72 73.5,229.32 75.0,228.97 76.5,228.67 78.0,228.42 79.5,228.22 81.0,228.09 82.5,228.01 84.0,228.00 85.5,228.06 87.0,228.17 88.5,228.35 90.0,228.58 91.5,228.86 93.0,229.20 94.5,229.58 96.0,230.00 97.5,230.45 99.0,230.92 100.5,231.41 102.0,231.92 103.5,232.42 105.0,232.91 106.5,233.39 108.0,233.85 109.5,234.28 111.0,234.68 112.5,235.03 114.0,235.33 115.5,235.58 117.0,235.78 118.5,235.91 120.0,235.99 121.5,236.00 123.0,235.94 124.5,235.83 126.0,235.65 127.5,235.42 129.0,235.14 130.5,234.80 132.0,234.42 133.5,234.00 135.0,233.55 136.5,233.08 138.0,232.59 139.5,232.08 141.0,231.58 142.5,231.09 144.0,230.61 145.5,230.15 147.0,229.72 148.5,229.32 150.0,228.97" stroke="#c9d1d6" opacity="0.36"/>
<polyline points="0.0,253.56 1.5,253.51 3.0,253.50 4.5,253.53 6.0,253.60 7.5,253.71 9.0,253.86 10.5,254.04 12.0,254.25 13.5,254.48 15.0,254.74 16.5,255.02 18.0,255.32 19.5,255.63 21.0,255.94 22.5,256.25 24.0,256.56 25.5,256.86 27.0,257.15 28.5,257.42 30.0,257.67 31.5,257.89 33.0,258.08 34.5,258.24 36.0,258.36 37.5,258.44 39.0,258.49 40.5,258.50 42.0,258.47 43.5,258.40 45.0,258.29 46.5,258.14 48.0,257.96 49.5,257.75 51.0,257.52 52.5,257.26 54.0,256.98 55.5,256.68 57.0,256.37 58.5,256.06 60.0,255.75 61.5,255.44 63.0,255.14 64.5,254.85 66.0,254.58 67.5,254.33 69.0,254.11 70.5,253.92 72.0,253.76 73.5,253.64 75.0,253.56 76.5,253.51 78.0,253.50 79.5,253.53 81.0,253.60 82.5,253.71 84.0,253.86 85.5,254.04 87.0,254.25 88.5,254.48 90.0,254.74 91.5,255.02 93.0,255.32 94.5,255.63 96.0,255.94 97.5,256.25 99.0,256.56 100.5,256.86 102.0,257.15 103.5,257.42 105.0,257.67 106.5,257.89 108.0,258.08 109.5,258.24 111.0,258.36 112.5,258.44 114.0,258.49 115.5,258.50 117.0,258.47 118.5,258.40 120.0,258.29 121.5,258.14 123.0,257.96 124.5,257.75 126.0,257.52 127.5,257.26 129.0,256.98 130.5,256.68 132.0,256.37 133.5,256.06 135.0,255.75 136.5,255.44 138.0,255.14 139.5,254.85 141.0,254.58 142.5,254.33 144.0,254.11 145.5,253.92 147.0,253.76 148.5,253.64 150.0,253.56" stroke="#c9d1d6" opacity="0.28"/>
<polyline points="0.0,279.04 1.5,279.08 3.0,279.14 4.5,279.21 6.0,279.30 7.5,279.39 9.0,279.50 10.5,279.61 12.0,279.73 13.5,279.85 15.0,279.97 16.5,280.10 18.0,280.22 19.5,280.34 21.0,280.46 22.5,280.57 24.0,280.66 25.5,280.75 27.0,280.83 28.5,280.89 30.0,280.94 31.5,280.98 33.0,281.00 34.5,281.00 36.0,280.99 37.5,280.96 39.0,280.92 40.5,280.86 42.0,280.79 43.5,280.70 45.0,280.61 46.5,280.50 48.0,280.39 49.5,280.27 51.0,280.15 52.5,280.03 54.0,279.90 55.5,279.78 57.0,279.66 58.5,279.54 60.0,279.43 61.5,279.34 63.0,279.25 64.5,279.17 66.0,279.11 67.5,279.06 69.0,279.02 70.5,279.00 72.0,279.00 73.5,279.01 75.0,279.04 76.5,279.08 78.0,279.14 79.5,279.21 81.0,279.30 82.5,279.39 84.0,279.50 85.5,279.61 87.0,279.73 88.5,279.85 90.0,279.97 91.5,280.10 93.0,280.22 94.5,280.34 96.0,280.46 97.5,280.57 99.0,280.66 100.5,280.75 102.0,280.83 103.5,280.89 105.0,280.94 106.5,280.98 108.0,281.00 109.5,281.00 111.0,280.99 112.5,280.96 114.0,280.92 115.5,280.86 117.0,280.79 118.5,280.70 120.0,280.61 121.5,280.50 123.0,280.39 124.5,280.27 126.0,280.15 127.5,280.03 129.0,279.90 130.5,279.78 132.0,279.66 133.5,279.54 135.0,279.43 136.5,279.34 138.0,279.25 139.5,279.17 141.0,279.11 142.5,279.06 144.0,279.02 145.5,279.00 147.0,279.00 148.5,279.01 150.0,279.04" stroke="#c9d1d6" opacity="0.20"/>
<polyline points="0.0,304.00 1.5,304.00 3.0,304.00 4.5,304.00 6.0,304.00 7.5,304.00 9.0,304.00 10.5,304.00 12.0,304.00 13.5,304.00 15.0,304.00 16.5,304.00 18.0,304.00 19.5,304.00 21.0,304.00 22.5,304.00 24.0,304.00 25.5,304.00 27.0,304.00 28.5,304.00 30.0,304.00 31.5,304.00 33.0,304.00 34.5,304.00 36.0,304.00 37.5,304.00 39.0,304.00 40.5,304.00 42.0,304.00 43.5,304.00 45.0,304.00 46.5,304.00 48.0,304.00 49.5,304.00 51.0,304.00 52.5,304.00 54.0,304.00 55.5,304.00 57.0,304.00 58.5,304.00 60.0,304.00 61.5,304.00 63.0,304.00 64.5,304.00 66.0,304.00 67.5,304.00 69.0,304.00 70.5,304.00 72.0,304.00 73.5,304.00 75.0,304.00 76.5,304.00 78.0,304.00 79.5,304.00 81.0,304.00 82.5,304.00 84.0,304.00 85.5,304.00 87.0,304.00 88.5,304.00 90.0,304.00 91.5,304.00 93.0,304.00 94.5,304.00 96.0,304.00 97.5,304.00 99.0,304.00 100.5,304.00 102.0,304.00 103.5,304.00 105.0,304.00 106.5,304.00 108.0,304.00 109.5,304.00 111.0,304.00 112.5,304.00 114.0,304.00 115.5,304.00 117.0,304.00 118.5,304.00 120.0,304.00 121.5,304.00 123.0,304.00 124.5,304.00 126.0,304.00 127.5,304.00 129.0,304.00 130.5,304.00 132.0,304.00 133.5,304.00 135.0,304.00 136.5,304.00 138.0,304.00 139.5,304.00 141.0,304.00 142.5,304.00 144.0,304.00 145.5,304.00 147.0,304.00 148.5,304.00 150.0,304.00" stroke="#c9d1d6" opacity="0.12"/>
</g>
</g>
<rect y="400" width="150" height="90" fill="#e07a2f"/>
</svg>
